# xmcd
#
# Track frame offsets: 
#        150
#        34667
#        60992
#        83627
#        97255
#        115950
#        146605
#        155680
#        177235
#        199815
#        214667
#        238487
#        279505
#        309522
#
# Disc length: 4295 seconds
#
# Revision: 2
# Processed by: cddbd v1.5.2PL0 Copyright (c) Steve Scherf et al.
# Submitted via: ExactAudioCopy v0.95b3
#
DISCID=ca10c50e
DTITLE=Various Artist - EMMAHOUSE 3
DYEAR=1997
DGENRE=House
TTITLE0=Kevin Aviance - Din Da Da (Gomi's Main Mix)
TTITLE1=Joey Rolon - Miss Thing (It's Over Mix)
TTITLE2=Pnache - Lookin' For The Promise Land (Malawian Blue Dub)
TTITLE3=Salsa Man - Salsa House
TTITLE4=El Cubano - Esta E La Vida (Summer In Rio Mix)
TTITLE5=Bah Samba - Reach Inside
TTITLE6=Lenny Fontana pr. The East Side Movement - Inner City
TTITLE7=Clob69 ft. Kim Cooper - Drama (DT's Dramapella)
TTITLE8=The Sunburst Band - Garden Of Love
TTITLE9=Los Dos Locos and F.W.D.M. and Rio Duco - Favela
TTITLE10=Grand Larceny - Workin'
TTITLE11=Malawi Rocks Re-Presents G.T.S. ft. Melody Sexton - Through T
TTITLE11=he Fire (Unreleased Mix)
TTITLE12=Instinct - You Are My Friend (B.O.P. Soul Classic Mix)
TTITLE13=Nuyorican Soul - Runaway (Ambient Dream Sequence)
EXTD=
EXTT0=
EXTT1=
EXTT2=
EXTT3=
EXTT4=
EXTT5=
EXTT6=
EXTT7=
EXTT8=
EXTT9=
EXTT10=
EXTT11=
EXTT12=
EXTT13=
PLAYORDER=
